solid test_domain_from_meshes.stl
facet normal 0.0 0.0 -400.0
  outer loop
    vertex 12.0 -8.0 0.0
    vertex -8.0 -8.0 0.0
    vertex -8.0 12.0 0.0
  endloop
endfacet
facet normal 0.0 0.0 -400.0
  outer loop
    vertex -8.0 12.0 0.0
    vertex 12.0 12.0 0.0
    vertex 12.0 -8.0 0.0
  endloop
endfacet
facet normal 0.0 0.0 400.0
  outer loop
    vertex -8.0 12.0 9.0
    vertex -8.0 -8.0 9.0
    vertex 12.0 -8.0 9.0
  endloop
endfacet
facet normal 0.0 -0.0 400.0
  outer loop
    vertex 12.0 -8.0 9.0
    vertex 12.0 12.0 9.0
    vertex -8.0 12.0 9.0
  endloop
endfacet
facet normal -180.0 0.0 0.0
  outer loop
    vertex -8.0 12.0 0.0
    vertex -8.0 -8.0 0.0
    vertex -8.0 -8.0 9.0
  endloop
endfacet
facet normal -180.0 0.0 0.0
  outer loop
    vertex -8.0 -8.0 9.0
    vertex -8.0 12.0 9.0
    vertex -8.0 12.0 0.0
  endloop
endfacet
facet normal 0.0 180.0 0.0
  outer loop
    vertex 12.0 12.0 0.0
    vertex -8.0 12.0 0.0
    vertex -8.0 12.0 9.0
  endloop
endfacet
facet normal -0.0 180.0 0.0
  outer loop
    vertex -8.0 12.0 9.0
    vertex 12.0 12.0 9.0
    vertex 12.0 12.0 0.0
  endloop
endfacet
facet normal 180.0 0.0 0.0
  outer loop
    vertex 12.0 -8.0 0.0
    vertex 12.0 12.0 0.0
    vertex 12.0 12.0 9.0
  endloop
endfacet
facet normal 180.0 0.0 0.0
  outer loop
    vertex 12.0 12.0 9.0
    vertex 12.0 -8.0 9.0
    vertex 12.0 -8.0 0.0
  endloop
endfacet
facet normal 0.0 -180.0 0.0
  outer loop
    vertex -8.0 -8.0 0.0
    vertex 12.0 -8.0 0.0
    vertex 12.0 -8.0 9.0
  endloop
endfacet
facet normal -0.0 -180.0 0.0
  outer loop
    vertex 12.0 -8.0 9.0
    vertex -8.0 -8.0 9.0
    vertex -8.0 -8.0 0.0
  endloop
endfacet
endsolid test_domain_from_meshes.stl
